<svg id="Capa_1" enable-background="new 0 0 512 512" height="512" viewBox="0 0 512 512" width="512" xmlns="http://www.w3.org/2000/svg"><g><path d="m482.359 252.922c11.519-11.734 18.641-27.798 18.641-45.501 0-35.841-29.159-65-65-65-35.821 0-64.966 29.127-64.998 64.941l-53.182-53.181c-8.5-8.499-19.8-13.181-31.82-13.181-11.182 0-21.739 4.057-30 11.465-8.261-7.408-18.818-11.465-30-11.465-12.02 0-23.32 4.682-31.819 13.181l-53.182 53.181c-.032-35.814-29.177-64.941-64.998-64.941-35.841 0-65 29.159-65 65 0 17.703 7.122 33.767 18.641 45.501-17.824 11.604-29.642 31.692-29.642 54.499v168.579c0 8.284 6.716 15 15 15h121c8.284 0 15-6.716 15-15v-151.36l105-105 105 105v151.36c0 8.284 6.716 15 15 15h121c8.284 0 15-6.716 15-15v-168.579c0-22.807-11.818-42.895-29.641-54.499zm-46.359-80.501c19.299 0 35 15.701 35 35s-15.701 35-35 35-35-15.701-35-35 15.701-35 35-35zm-360 0c19.299 0 35 15.701 35 35s-15.701 35-35 35-35-15.701-35-35 15.701-35 35-35zm160.607 24.185-111.213 111.214c-2.813 2.813-4.394 6.628-4.394 10.606v142.574h-91v-153.579c0-19.299 15.701-35 35-35h47.152c3.978 0 7.793-1.58 10.606-4.394l92.636-92.634c2.833-2.833 6.6-4.394 10.606-4.394s7.773 1.561 10.606 4.394c5.849 5.849 5.849 15.365.001 21.213zm245.393 264.394h-91v-142.573c0-3.979-1.581-7.794-4.394-10.606l-111.212-111.215c-5.848-5.849-5.848-15.364 0-21.213 2.833-2.833 6.6-4.394 10.606-4.394s7.773 1.561 10.606 4.394l92.635 92.634c2.813 2.813 6.628 4.394 10.606 4.394h47.153c19.299 0 35 15.701 35 35z"/><path d="m256 91c8.284 0 15-6.716 15-15v-40c0-8.284-6.716-15-15-15s-15 6.716-15 15v40c0 8.284 6.716 15 15 15z"/><path d="m188.01 103.5c2.778 4.813 7.82 7.503 13.004 7.503 2.544 0 5.124-.648 7.486-2.013 7.174-4.142 9.632-13.316 5.49-20.49l-20-34.641c-4.141-7.175-13.316-9.635-20.49-5.49-7.174 4.142-9.632 13.316-5.49 20.49z"/><path d="m303.5 108.99c2.362 1.364 4.941 2.013 7.486 2.013 5.184 0 10.226-2.69 13.004-7.503l20-34.641c4.142-7.174 1.684-16.349-5.49-20.49-7.175-4.145-16.348-1.685-20.49 5.49l-20 34.641c-4.142 7.174-1.684 16.349 5.49 20.49z"/></g></svg>